<svg xmlns="http://www.w3.org/2000/svg" viewBox="0 0 16 11"><title>z-card</title><g id="Camada_2" data-name="Camada 2"><g id="Camada_1-2" data-name="Camada 1"><path d="M15.21,0H.79A.81.81,0,0,0,0,.83H0v9.33A.81.81,0,0,0,.78,11H15.21a.81.81,0,0,0,.79-.83h0V.84A.81.81,0,0,0,15.22,0ZM3.13,3.57a.8.8,0,0,1-.47.15.9.9,0,0,1-.93-.88.92.92,0,0,1,.82-1h.11A.88.88,0,0,1,3.13,2a1.32,1.32,0,0,0,0,1.58ZM1.9,5.12H7.61a.12.12,0,0,1,.12.13V5.8a.12.12,0,0,1-.12.13H1.9a.13.13,0,0,1-.13-.13h0V5.25a.13.13,0,0,1,.13-.13ZM3.17,2.79a.91.91,0,0,1,.88-.93.9.9,0,0,1,.87.93A.91.91,0,0,1,4,3.72a.91.91,0,0,1-.69-.36A1,1,0,0,1,3.17,2.79ZM1.9,7H5.26a.13.13,0,0,1,.13.13h0v.53a.13.13,0,0,1-.12.14H1.9a.13.13,0,0,1-.13-.14V7.09A.13.13,0,0,1,1.9,7ZM14.25,8.78a.16.16,0,0,1-.16.17h-3.3a.16.16,0,0,1-.17-.16h0V5.29a.18.18,0,0,1,.17-.17h3.29a.17.17,0,0,1,.16.17h0Z"/></g></g></svg>