<svg xmlns="http://www.w3.org/2000/svg" viewBox="0 0 21.78 19.06"><title>z-heart</title><g id="Camada_2" data-name="Camada 2"><g id="Camada_1-2" data-name="Camada 1"><path d="M19.65,1.32a5.76,5.76,0,0,1,1.83,2.73,6.19,6.19,0,0,1,.15,3.25,5.66,5.66,0,0,1-1.55,2.83l-8.21,8.51a1.35,1.35,0,0,1-1,.42,1.37,1.37,0,0,1-1-.42L1.7,10.17A5.91,5.91,0,0,1,.15,7.3,6.19,6.19,0,0,1,.3,4.05,5.76,5.76,0,0,1,2.13,1.32,5.37,5.37,0,0,1,4.72.09,5.74,5.74,0,0,1,7.57.3,6,6,0,0,1,10,1.88l.85.85.85-.85A6,6,0,0,1,14.21.3,5.74,5.74,0,0,1,17.06.09,5.37,5.37,0,0,1,19.65,1.32Z"/></g></g></svg>