<svg xmlns="http://www.w3.org/2000/svg" viewBox="0 0 12 9.75"><title>z-menu</title><g id="Camada_2" data-name="Camada 2"><g id="Camada_1-2" data-name="Camada 1"><path d="M2.25,1.12A1.07,1.07,0,0,0,1.92.33,1.08,1.08,0,0,0,1.12,0,1.07,1.07,0,0,0,.33.33,1.07,1.07,0,0,0,0,1.12a1.08,1.08,0,0,0,.33.8,1.07,1.07,0,0,0,.79.33,1.08,1.08,0,0,0,.8-.33A1.08,1.08,0,0,0,2.25,1.12ZM1.12,3.75a1.08,1.08,0,0,1,.8.33,1.12,1.12,0,0,1,0,1.59,1.08,1.08,0,0,1-.8.33,1.07,1.07,0,0,1-.79-.33,1.12,1.12,0,0,1,0-1.59A1.07,1.07,0,0,1,1.12,3.75Zm0,3.75a1.08,1.08,0,0,1,.8.33,1.12,1.12,0,0,1,0,1.59,1.08,1.08,0,0,1-.8.33,1.07,1.07,0,0,1-.79-.33,1.12,1.12,0,0,1,0-1.59A1.07,1.07,0,0,1,1.12,7.5ZM3.38,2A.38.38,0,0,1,3,1.59V.66A.38.38,0,0,1,3.38.28h8.24A.38.38,0,0,1,12,.66v.93a.38.38,0,0,1-.38.38Zm0,3.75A.38.38,0,0,1,3,5.34V4.41A.38.38,0,0,1,3.38,4h8.24a.38.38,0,0,1,.38.38v.93a.38.38,0,0,1-.38.38Zm0,3.75A.38.38,0,0,1,3,9.09V8.16a.38.38,0,0,1,.38-.38h8.24a.38.38,0,0,1,.38.38v.93a.38.38,0,0,1-.38.38Z"/></g></g></svg>