<svg xmlns="http://www.w3.org/2000/svg" viewBox="0 0 15 12"><title>z-truck</title><g id="Camada_2" data-name="Camada 2"><g id="Camada_1-2" data-name="Camada 1"><path d="M14.62,8.25a.38.38,0,0,1,.38.38v.75a.36.36,0,0,1-.11.26.37.37,0,0,1-.27.11H13.5A2.25,2.25,0,0,1,11.25,12,2.25,2.25,0,0,1,9,9.75H6a2.14,2.14,0,0,1-.66,1.59A2.15,2.15,0,0,1,3.75,12a2.14,2.14,0,0,1-1.59-.66A2.14,2.14,0,0,1,1.5,9.75H1.12a1.07,1.07,0,0,1-.79-.33A1.07,1.07,0,0,1,0,8.63V1.12A1.07,1.07,0,0,1,.33.33,1.07,1.07,0,0,1,1.12,0h7.5a1.08,1.08,0,0,1,.8.33,1.07,1.07,0,0,1,.33.79V2.25h1a1.09,1.09,0,0,1,.8.33l2.34,2.34a1.09,1.09,0,0,1,.33.8V8.25ZM3.75,10.88a1.13,1.13,0,1,0,0-2.25,1.13,1.13,0,1,0,0,2.25Zm7.5,0a1.13,1.13,0,1,0-.8-.33A1.09,1.09,0,0,0,11.25,10.88ZM13.12,6V5.72L10.78,3.38h-1V6Z"/></g></g></svg>