<svg xmlns="http://www.w3.org/2000/svg" viewBox="0 0 19 18"><title>z-user</title><g id="Camada_2" data-name="Camada 2"><g id="Camada_1-2" data-name="Camada 1"><path d="M19,17.53a5.35,5.35,0,0,0-2.25-2.94,34.36,34.36,0,0,0-3.19-1.73,17,17,0,0,1-1.78-1c-.17-.12-.26-.23-.27-.34s.39-.67.76-1a5.78,5.78,0,0,0,.83-1c.74-1.13,1.1-2.46.75-5.88A3.8,3.8,0,0,0,11.51.45,5.62,5.62,0,0,0,9.5,0a5.62,5.62,0,0,0-2,.45A3.8,3.8,0,0,0,5.16,3.69c-.35,3.42,0,4.75.75,5.88a5.78,5.78,0,0,0,.83,1c.37.36.78.78.76,1s-.1.22-.27.34a17,17,0,0,1-1.78,1,34.36,34.36,0,0,0-3.19,1.73A5.41,5.41,0,0,0,0,17.53a.37.37,0,0,0,.07.32A.34.34,0,0,0,.37,18H18.63a.36.36,0,0,0,.3-.15.37.37,0,0,0,.06-.32"/></g></g></svg>