<svg class="svg-sprites" id="skin-sprite" xmlns="http://www.w3.org/2000/svg" xmlns:xlink="http://www.w3.org/1999/xlink">
    <symbol viewBox="0 0 16 11" id="z-card" xmlns="http://www.w3.org/2000/svg"><g data-name="Camada 2"><path d="M15.21 0H.79A.81.81 0 000 .83v9.33a.81.81 0 00.78.84h14.43a.81.81 0 00.79-.83V.84a.81.81 0 00-.78-.84zM3.13 3.57a.8.8 0 01-.47.15.9.9 0 01-.93-.88.92.92 0 01.82-1h.11a.88.88 0 01.47.16 1.32 1.32 0 000 1.58zM1.9 5.12h5.71a.12.12 0 01.12.13v.55a.12.12 0 01-.12.13H1.9a.13.13 0 01-.13-.13v-.55a.13.13 0 01.13-.13zm1.27-2.33a.91.91 0 01.88-.93.9.9 0 01.87.93.91.91 0 01-.92.93.91.91 0 01-.69-.36 1 1 0 01-.14-.57zM1.9 7h3.36a.13.13 0 01.13.13v.53a.13.13 0 01-.12.14H1.9a.13.13 0 01-.13-.14v-.57A.13.13 0 011.9 7zm12.35 1.78a.16.16 0 01-.16.17h-3.3a.16.16 0 01-.17-.16v-3.5a.18.18 0 01.17-.17h3.29a.17.17 0 01.16.17z" data-name="Camada 1"/></g></symbol>
    <symbol viewBox="0 0 16.01 21" id="z-cart" xmlns="http://www.w3.org/2000/svg"><g data-name="Camada 2"><path d="M15.39 5.44h-2.76v-.63A4.71 4.71 0 008 0a4.71 4.71 0 00-4.6 4.81v.63H.66A.65.65 0 000 6v14h.17a1.71 1.71 0 001.53 1h12.61A1.73 1.73 0 0016 19.25V6.1a.6.6 0 00-.61-.66zM4.74 4.78A3.38 3.38 0 018 1.34a3.38 3.38 0 013.29 3.44v.64H4.74z" fill-rule="evenodd" data-name="Camada 1"/></g></symbol>
    <symbol viewBox="0 0 21.78 19.06" id="z-heart" xmlns="http://www.w3.org/2000/svg"><g data-name="Camada 2"><path d="M19.65 1.32a5.76 5.76 0 011.83 2.73 6.19 6.19 0 01.15 3.25 5.66 5.66 0 01-1.55 2.83l-8.21 8.51a1.35 1.35 0 01-1 .42 1.37 1.37 0 01-1-.42L1.7 10.17A5.91 5.91 0 01.15 7.3 6.19 6.19 0 01.3 4.05a5.76 5.76 0 011.83-2.73A5.37 5.37 0 014.72.09 5.74 5.74 0 017.57.3 6 6 0 0110 1.88l.85.85.85-.85A6 6 0 0114.21.3a5.74 5.74 0 012.85-.21 5.37 5.37 0 012.59 1.23z" data-name="Camada 1"/></g></symbol>
    <symbol viewBox="0 0 12 9.75" id="z-menu" xmlns="http://www.w3.org/2000/svg"><g data-name="Camada 2"><path d="M2.25 1.12a1.07 1.07 0 00-.33-.79 1.08 1.08 0 00-.8-.33 1.07 1.07 0 00-.79.33 1.07 1.07 0 00-.33.79 1.08 1.08 0 00.33.8 1.07 1.07 0 00.79.33 1.08 1.08 0 00.8-.33 1.08 1.08 0 00.33-.8zM1.12 3.75a1.08 1.08 0 01.8.33 1.12 1.12 0 010 1.59 1.08 1.08 0 01-.8.33 1.07 1.07 0 01-.79-.33 1.12 1.12 0 010-1.59 1.07 1.07 0 01.79-.33zm0 3.75a1.08 1.08 0 01.8.33 1.12 1.12 0 010 1.59 1.08 1.08 0 01-.8.33 1.07 1.07 0 01-.79-.33 1.12 1.12 0 010-1.59 1.07 1.07 0 01.79-.33zM3.38 2A.38.38 0 013 1.59V.66a.38.38 0 01.38-.38h8.24a.38.38 0 01.38.38v.93a.38.38 0 01-.38.38zm0 3.75A.38.38 0 013 5.34v-.93A.38.38 0 013.38 4h8.24a.38.38 0 01.38.38v.93a.38.38 0 01-.38.38zm0 3.75A.38.38 0 013 9.09v-.93a.38.38 0 01.38-.38h8.24a.38.38 0 01.38.38v.93a.38.38 0 01-.38.38z" data-name="Camada 1"/></g></symbol>
    <symbol viewBox="0 0 23 13.99" id="z-next" xmlns="http://www.w3.org/2000/svg"><g data-name="Camada 2"><path d="M23 7a.86.86 0 00-.2-.5L17.05.23a.71.71 0 00-1 0 .77.77 0 000 1l4.62 5H.72a.74.74 0 000 1.47h19.9l-4.62 5a.78.78 0 000 1 .72.72 0 001 0l5.8-6.2A.65.65 0 0023 7z" data-name="Camada 1"/></g></symbol>
    <symbol viewBox="0 0 23 13.99" id="z-prev" xmlns="http://www.w3.org/2000/svg"><g data-name="Camada 2"><path d="M0 7a.89.89 0 00.2.51L6 13.76a.71.71 0 001 0 .77.77 0 000-1l-4.62-5h19.9a.74.74 0 000-1.47H2.38L7 1.24a.78.78 0 000-1 .72.72 0 00-1 0L.2 6.49A.64.64 0 000 7z" data-name="Camada 1"/></g></symbol>
    <symbol viewBox="0 0 20 20" id="z-ruler" xmlns="http://www.w3.org/2000/svg"><g data-name="Camada 2"><path d="M19.82 6.28l-13 12.87L6 20l-6-6 1.58-1.57 3.34 3.34.91-.91-3.35-3.35 1.57-1.58L6.12 12l.88-.91L5 9l1.54-1.55L10 10.91l.91-.91-3.46-3.46L9 5l2.09 2 .91-.88-2.07-2.06 1.58-1.58 3.34 3.34.91-.9-3.35-3.35L14 0l6 6-.24.23z" data-name="Camada 1"/></g></symbol>
    <symbol viewBox="0 0 20.97 21" id="z-search" xmlns="http://www.w3.org/2000/svg"><g data-name="Camada 2"><path d="M16 14.62l4.67 4.68a1 1 0 11-1.41 1.41L14.6 16a9.08 9.08 0 111.4-1.38zM9 16a7 7 0 10-7-7 7 7 0 007 7z" data-name="Camada 1"/></g></symbol>
    <symbol viewBox="0 0 15 12" id="z-truck" xmlns="http://www.w3.org/2000/svg"><g data-name="Camada 2"><path d="M14.62 8.25a.38.38 0 01.38.38v.75a.36.36 0 01-.11.26.37.37 0 01-.27.11H13.5A2.25 2.25 0 0111.25 12 2.25 2.25 0 019 9.75H6a2.14 2.14 0 01-.66 1.59 2.15 2.15 0 01-1.59.66 2.14 2.14 0 01-1.59-.66 2.14 2.14 0 01-.66-1.59h-.38a1.07 1.07 0 01-.79-.33A1.07 1.07 0 010 8.63V1.12A1.07 1.07 0 01.33.33 1.07 1.07 0 011.12 0h7.5a1.08 1.08 0 01.8.33 1.07 1.07 0 01.33.79v1.13h1a1.09 1.09 0 01.8.33l2.34 2.34a1.09 1.09 0 01.33.8v2.53zM3.75 10.88a1.13 1.13 0 100-2.25 1.13 1.13 0 100 2.25zm7.5 0a1.13 1.13 0 10-.8-.33 1.09 1.09 0 00.8.33zM13.12 6v-.28l-2.34-2.34h-1V6z" data-name="Camada 1"/></g></symbol>
    <symbol viewBox="0 0 19 18" id="z-user" xmlns="http://www.w3.org/2000/svg"><g data-name="Camada 2"><path d="M19 17.53a5.35 5.35 0 00-2.25-2.94 34.36 34.36 0 00-3.19-1.73 17 17 0 01-1.78-1c-.17-.12-.26-.23-.27-.34s.39-.67.76-1a5.78 5.78 0 00.83-1c.74-1.13 1.1-2.46.75-5.88A3.8 3.8 0 0011.51.45 5.62 5.62 0 009.5 0a5.62 5.62 0 00-2 .45 3.8 3.8 0 00-2.34 3.24c-.35 3.42 0 4.75.75 5.88a5.78 5.78 0 00.83 1c.37.36.78.78.76 1s-.1.22-.27.34a17 17 0 01-1.78 1 34.36 34.36 0 00-3.19 1.73A5.41 5.41 0 000 17.53a.37.37 0 00.07.32.34.34 0 00.3.15h18.26a.36.36 0 00.3-.15.37.37 0 00.06-.32" data-name="Camada 1"/></g></symbol>
</svg>